<?xml version="1.0" encoding="UTF-8" standalone="no"?>
<!-- Generator: Adobe Illustrator 15.1.0, SVG Export Plug-In . SVG Version: 6.00 Build 0)  -->
<svg
   xmlns:dc="http://purl.org/dc/elements/1.1/"
   xmlns:cc="http://creativecommons.org/ns#"
   xmlns:rdf="http://www.w3.org/1999/02/22-rdf-syntax-ns#"
   xmlns:svg="http://www.w3.org/2000/svg"
   xmlns="http://www.w3.org/2000/svg"
   xmlns:sodipodi="http://sodipodi.sourceforge.net/DTD/sodipodi-0.dtd"
   xmlns:inkscape="http://www.inkscape.org/namespaces/inkscape"
   version="1.0"
   id="Layer_1"
   x="0px"
   y="0px"
   width="100"
   height="120"
   viewBox="0 0 100 100"
   enable-background="new 0 0 100 100"
   xml:space="preserve"
   sodipodi:version="0.32"
   inkscape:version="0.46"
   sodipodi:docname="noun_project_464.svg"
   inkscape:output_extension="org.inkscape.output.svg.inkscape"><metadata
   id="metadata10"><rdf:RDF><cc:Work
       rdf:about=""><dc:format>image/svg+xml</dc:format><dc:type
         rdf:resource="http://purl.org/dc/dcmitype/StillImage" /></cc:Work></rdf:RDF></metadata><defs
   id="defs8"><inkscape:perspective
     sodipodi:type="inkscape:persp3d"
     inkscape:vp_x="0 : 50 : 1"
     inkscape:vp_y="0 : 1000 : 0"
     inkscape:vp_z="100 : 50 : 1"
     inkscape:persp3d-origin="50 : 33.333333 : 1"
     id="perspective12" /></defs><sodipodi:namedview
   inkscape:window-height="814"
   inkscape:window-width="1046"
   inkscape:pageshadow="2"
   inkscape:pageopacity="0.0"
   guidetolerance="10.0"
   gridtolerance="10.0"
   objecttolerance="10.0"
   borderopacity="1.0"
   bordercolor="#666666"
   pagecolor="#ffffff"
   id="base"
   showgrid="false"
   inkscape:zoom="4.62"
   inkscape:cx="65.548448"
   inkscape:cy="58.771619"
   inkscape:window-x="436"
   inkscape:window-y="80"
   inkscape:current-layer="Layer_1" />
<path
   d="M 30.51255,67.65526 C 36.45355,74.79326 42.39555,81.93126 48.33655,89.069257 C 48.77455,89.593257 49.28755,89.784257 49.78355,89.750257 C 50.27955,89.784257 50.79455,89.594257 51.23055,89.069257 C 57.17155,81.93126 63.11355,74.79326 69.05455,67.65526 C 70.15455,66.33626 69.51555,64.16126 67.60855,64.16126 C 65.11455,64.16126 62.62255,64.16126 60.12955,64.16126 C 60.12955,53.36626 60.12955,42.57126 60.12955,31.77526 C 60.12955,30.65926 59.19855,29.72826 58.08255,29.72826 C 52.55155,29.72826 47.01855,29.72826 41.48455,29.72826 C 40.36855,29.72826 39.43755,30.65926 39.43755,31.77526 C 39.43755,42.57126 39.43755,53.36626 39.43755,64.16126 C 36.94455,64.16126 34.45255,64.16126 31.95855,64.16126 C 30.05155,64.16126 29.41255,66.33626 30.51255,67.65526 z"
   id="path3" />
<path
   d="M 49.78355,109.74026 C 77.39755,109.74026 99.78355,87.354257 99.78355,59.74026 C 99.78355,32.12626 77.39755,9.7402601 49.78355,9.7402601 C 22.16955,9.7402601 -0.21645022,32.12626 -0.21645022,59.74026 C -0.21645022,87.354257 22.16955,109.74026 49.78355,109.74026 z M 49.78355,17.74026 C 72.97955,17.74026 91.78355,36.54426 91.78355,59.74026 C 91.78355,82.93526 72.97955,101.74026 49.78355,101.74026 C 26.58855,101.74026 7.7835498,82.93526 7.7835498,59.74026 C 7.7835498,36.54426 26.58855,17.74026 49.78355,17.74026 z"
   id="path5" />
<text
   xml:space="preserve"
   style="font-size:19.7957077px;font-style:normal;font-weight:normal;line-height:125%;fill:#000000;fill-opacity:1;stroke:none;stroke-width:1px;stroke-linecap:butt;stroke-linejoin:miter;stroke-opacity:1;font-family:Bitstream Vera Sans"
   x="0.096557543"
   y="6.6621985"
   id="text2385"
   sodipodi:linespacing="125%"
   transform="scale(0.9005413,1.1104432)"><tspan
     sodipodi:role="line"
     id="tspan2387"
     x="0.096557543"
     y="6.6621985"
     style="font-size:19.7957077px;font-style:normal;font-variant:normal;font-weight:bold;font-stretch:normal;text-align:start;line-height:125%;writing-mode:lr-tb;text-anchor:start;font-family:Bitstream Vera Sans;-inkscape-font-specification:Bitstream Vera Sans Bold">autoscroll</tspan></text>

</svg>